<svg xmlns="http://www.w3.org/2000/svg" enable-background="new 0 0 256 256" viewBox="0 0 256 256" id="trello"><path fill="#3193F3" d="M179.865,16.977H76.135c-32.668,0-59.157,26.489-59.157,59.157v103.731
							c0,32.668,26.489,59.157,59.157,59.157h103.731c32.668,0,59.157-26.489,59.157-59.157V76.135
							C239.023,43.467,212.533,16.977,179.865,16.977z"></path><path fill="#35B1FC" d="M94.488,239.023H76.135c-32.668,0-59.157-26.489-59.157-59.157V76.135
							c0-32.668,26.489-59.157,59.157-59.157h18.353c-32.668,0-59.157,26.489-59.157,59.157v103.731
							C35.33,212.533,61.819,239.023,94.488,239.023z"></path><path fill="#307FED" d="M239.023,76.135v103.731c0,32.668-26.489,59.157-59.157,59.157h-18.353
							c32.668,0,59.157-26.489,59.157-59.157V76.135c0-32.668-26.489-59.157-59.157-59.157h18.353
							C212.533,16.977,239.023,43.467,239.023,76.135z"></path><g><path fill="#FFE2E2" d="M104.396 199.667H59.232c-4.29 0-7.768-3.478-7.768-7.768V64.102c0-4.29 3.478-7.768 7.768-7.768h45.164c4.29 0 7.768 3.478 7.768 7.768v127.797C112.164 196.189 108.686 199.667 104.396 199.667zM196.768 136.338h-45.164c-4.29 0-7.768-3.478-7.768-7.768V64.102c0-4.29 3.478-7.768 7.768-7.768h45.164c4.29 0 7.768 3.478 7.768 7.768v64.468C204.537 132.86 201.059 136.338 196.768 136.338z"></path></g><g><path fill="#5F266D" d="M179.862,12.981H76.138c-34.824,0-63.156,28.332-63.156,63.156v103.726
			c0,34.824,28.332,63.156,63.156,63.156h103.725c34.824,0,63.156-28.332,63.156-63.156V76.137
			C243.019,41.313,214.687,12.981,179.862,12.981z M235.019,179.863c0,30.413-24.743,55.156-55.156,55.156H76.138
			c-30.413,0-55.156-24.743-55.156-55.156V76.137c0-30.413,24.743-55.156,55.156-55.156h103.725
			c30.413,0,55.156,24.743,55.156,55.156V179.863z"></path><path fill="#5F266D" d="M172.654 41.667h15c2.209 0 4-1.791 4-4s-1.791-4-4-4h-15c-2.209 0-4 1.791-4 4S170.445 41.667 172.654 41.667zM152 41.667h5.654c2.209 0 4-1.791 4-4s-1.791-4-4-4H152c-2.209 0-4 1.791-4 4S149.791 41.667 152 41.667zM104.396 52.333H59.231c-6.489 0-11.769 5.279-11.769 11.768v127.797c0 6.489 5.279 11.768 11.769 11.768h45.164c6.489 0 11.769-5.279 11.769-11.768V64.102C116.164 57.613 110.885 52.333 104.396 52.333zM108.164 191.898c0 2.078-1.69 3.768-3.769 3.768H59.231c-2.078 0-3.769-1.69-3.769-3.768V64.102c0-2.078 1.69-3.768 3.769-3.768h45.164c2.078 0 3.769 1.69 3.769 3.768V191.898zM196.769 52.333h-45.164c-6.489 0-11.769 5.279-11.769 11.768v64.468c0 6.489 5.279 11.769 11.769 11.769h45.164c6.489 0 11.769-5.279 11.769-11.769V64.102C208.537 57.613 203.258 52.333 196.769 52.333zM200.537 128.569c0 2.078-1.69 3.769-3.769 3.769h-45.164c-2.078 0-3.769-1.69-3.769-3.769V64.102c0-2.078 1.69-3.768 3.769-3.768h45.164c2.078 0 3.769 1.69 3.769 3.768V128.569z"></path></g></svg>