<svg xmlns="http://www.w3.org/2000/svg" width="1024" height="1024" fill="none" viewBox="0 0 1024 1024" id="trello"><rect width="690" height="690" x="167" y="167" fill="#fff" rx="100"></rect><g filter="url(#filter0_diii_37_297)"><path fill="#0080FF" d="M307 342.323C307 324.692 321.643 310 339.214 310H450.5C468.071 310 482.714 324.692 482.714 342.323V659.677C482.714 677.308 468.071 692 450.5 692H339.214C321.643 692 307 677.308 307 659.677V342.323ZM541.286 498.062C541.286 515.692 555.929 530.385 573.5 530.385H684.786C702.357 530.385 717 515.692 717 498.062V342.323C717 324.692 702.357 310 684.786 310H573.5C555.929 310 541.286 324.692 541.286 342.323V498.062Z"></path><path fill="url(#paint0_linear_37_297)" d="M307 342.323C307 324.692 321.643 310 339.214 310H450.5C468.071 310 482.714 324.692 482.714 342.323V659.677C482.714 677.308 468.071 692 450.5 692H339.214C321.643 692 307 677.308 307 659.677V342.323ZM541.286 498.062C541.286 515.692 555.929 530.385 573.5 530.385H684.786C702.357 530.385 717 515.692 717 498.062V342.323C717 324.692 702.357 310 684.786 310H573.5C555.929 310 541.286 324.692 541.286 342.323V498.062Z"></path><path fill="url(#paint1_linear_37_297)" fill-opacity=".7" d="M307 342.323C307 324.692 321.643 310 339.214 310H450.5C468.071 310 482.714 324.692 482.714 342.323V659.677C482.714 677.308 468.071 692 450.5 692H339.214C321.643 692 307 677.308 307 659.677V342.323ZM541.286 498.062C541.286 515.692 555.929 530.385 573.5 530.385H684.786C702.357 530.385 717 515.692 717 498.062V342.323C717 324.692 702.357 310 684.786 310H573.5C555.929 310 541.286 324.692 541.286 342.323V498.062Z"></path></g><defs><linearGradient id="paint0_linear_37_297" x1="512.314" x2="512.314" y1="172.813" y2="607.111" gradientUnits="userSpaceOnUse"><stop offset=".005" stop-color="#fff" stop-opacity=".08"></stop><stop offset=".085" stop-opacity=".08"></stop><stop offset=".337" stop-color="#fff" stop-opacity=".1"></stop><stop offset=".661" stop-color="#fff" stop-opacity=".1"></stop><stop offset="1" stop-opacity=".1"></stop></linearGradient><linearGradient id="paint1_linear_37_297" x1="512" x2="512" y1="310" y2="692" gradientUnits="userSpaceOnUse"><stop stop-color="#0080FF"></stop><stop offset="1" stop-color="#fff" stop-opacity="0"></stop></linearGradient><filter id="filter0_diii_37_297" width="450" height="425.462" x="287" y="300" color-interpolation-filters="sRGB" filterUnits="userSpaceOnUse"><feFlood flood-opacity="0" result="BackgroundImageFix"></feFlood><feColorMatrix in="SourceAlpha" result="hardAlpha" values="0 0 0 0 0 0 0 0 0 0 0 0 0 0 0 0 0 0 127 0"></feColorMatrix><feOffset dy="13.462"></feOffset><feGaussianBlur stdDeviation="10"></feGaussianBlur><feColorMatrix values="0 0 0 0 0 0 0 0 0 0.501961 0 0 0 0 1 0 0 0 0.6 0"></feColorMatrix><feBlend in2="BackgroundImageFix" result="effect1_dropShadow_37_297"></feBlend><feBlend in="SourceGraphic" in2="effect1_dropShadow_37_297" result="shape"></feBlend><feColorMatrix in="SourceAlpha" result="hardAlpha" values="0 0 0 0 0 0 0 0 0 0 0 0 0 0 0 0 0 0 127 0"></feColorMatrix><feOffset dy="20.19"></feOffset><feGaussianBlur stdDeviation="45"></feGaussianBlur><feComposite in2="hardAlpha" k2="-1" k3="1" operator="arithmetic"></feComposite><feColorMatrix values="0 0 0 0 0 0 0 0 0 0.501961 0 0 0 0 1 0 0 0 0.6 0"></feColorMatrix><feBlend in2="shape" result="effect2_innerShadow_37_297"></feBlend><feColorMatrix in="SourceAlpha" result="hardAlpha" values="0 0 0 0 0 0 0 0 0 0 0 0 0 0 0 0 0 0 127 0"></feColorMatrix><feOffset dy="15"></feOffset><feGaussianBlur stdDeviation="6.5"></feGaussianBlur><feComposite in2="hardAlpha" k2="-1" k3="1" operator="arithmetic"></feComposite><feColorMatrix values="0 0 0 0 1 0 0 0 0 1 0 0 0 0 1 0 0 0 0.3 0"></feColorMatrix><feBlend in2="effect2_innerShadow_37_297" result="effect3_innerShadow_37_297"></feBlend><feColorMatrix in="SourceAlpha" result="hardAlpha" values="0 0 0 0 0 0 0 0 0 0 0 0 0 0 0 0 0 0 127 0"></feColorMatrix><feOffset dy="-10"></feOffset><feGaussianBlur stdDeviation="7"></feGaussianBlur><feComposite in2="hardAlpha" k2="-1" k3="1" operator="arithmetic"></feComposite><feColorMatrix values="0 0 0 0 1 0 0 0 0 1 0 0 0 0 1 0 0 0 0.25 0"></feColorMatrix><feBlend in2="effect3_innerShadow_37_297" result="effect4_innerShadow_37_297"></feBlend></filter></defs></svg>