<svg xmlns="http://www.w3.org/2000/svg" viewBox="0 0 750 750" id="trello"><defs><linearGradient id="a" x1="110.76" x2="639.24" y1="375" y2="375" gradientUnits="userSpaceOnUse"><stop offset="0" stop-color="#009114"></stop><stop offset="1" stop-color="#ccf370"></stop></linearGradient></defs><path fill="url(#a)" d="M532.25,110.76H217.75a107.12,107.12,0,0,0-107,107v314.5a107.12,107.12,0,0,0,107,107h314.5a107.12,107.12,0,0,0,107-107V217.75A107.12,107.12,0,0,0,532.25,110.76Zm67,421.49a67.06,67.06,0,0,1-67,67H217.75a67.06,67.06,0,0,1-67-67V217.75a67.06,67.06,0,0,1,67-67h314.5a67.06,67.06,0,0,1,67,67ZM311.47,261.91H255a57.48,57.48,0,0,0-57.41,57.41v179.3A57.48,57.48,0,0,0,255,556h56.47a57.48,57.48,0,0,0,57.41-57.41V319.32A57.48,57.48,0,0,0,311.47,261.91Zm17.41,236.71A17.43,17.43,0,0,1,311.47,516H255a17.43,17.43,0,0,1-17.41-17.41V319.32A17.43,17.43,0,0,1,255,301.91h56.47a17.43,17.43,0,0,1,17.41,17.41ZM503.17,360.74H430.36A49.3,49.3,0,0,0,381.12,410v96.8A49.3,49.3,0,0,0,430.36,556h72.81a49.3,49.3,0,0,0,49.24-49.25V410A49.3,49.3,0,0,0,503.17,360.74Zm9.24,146a9.26,9.26,0,0,1-9.24,9.25H430.36a9.25,9.25,0,0,1-9.24-9.25V410a9.24,9.24,0,0,1,9.24-9.24h72.81a9.25,9.25,0,0,1,9.24,9.24Z"></path></svg>